<?xml version="1.0" encoding="utf-8"?>
<!-- Generator: Adobe Illustrator 27.8.1, SVG Export Plug-In . SVG Version: 6.00 Build 0)  -->
<svg version="1.1" id="_레이어_1" xmlns="http://www.w3.org/2000/svg" xmlns:xlink="http://www.w3.org/1999/xlink" x="0px"
	 y="0px" viewBox="0 0 941.8 458" style="enable-background:new 0 0 941.8 458;" xml:space="preserve">
<style type="text/css">
	.st0{fill:#FFFFFF;}
	.st1{fill:#159A97;}
	.st2{fill-rule:evenodd;clip-rule:evenodd;fill:#F0F0F0;}
	.st3{fill:#011627;}
	.st4{fill-rule:evenodd;clip-rule:evenodd;fill:#159A97;}
	.st5{fill:#002333;}
	.st6{fill:#DEEFE7;}
	.st7{fill-rule:evenodd;clip-rule:evenodd;fill:#002333;}
</style>
<path d="M71.1,544.2c0-4.2,0-8.3,0-12.4c0-1.3,0.9-1.2,1.7-1.3c6.1-1,12.3-1.9,18.4-2.9c0.5-0.1,1-0.1,1.5-0.2c3-0.6,3.8-2,3.1-5.1
	c-0.3-1.4-1.3-1-2.2-1c-6.2,0-12.3-0.1-18.4,0c-1.8,0-2.6-0.3-2.6-2.4c0.1-10.1,0.1-20.2,0-30.3c0-1.8,0.4-2.4,2.3-2.4
	c21.3,0.1,42.6,0.1,63.8,0c1.6,0,2.3,0.2,2.3,2.1c-0.1,10.3-0.1,20.5,0,30.8c0,1.8-0.6,2.2-2.3,2.2c-6.2-0.1-12.5,0-18.7,0
	c-1.2,0-2.5-0.3-2.5,1.8c-0.1,2,1.3,1.8,2.4,1.9c6.5,0.4,13,0.9,19.5,2.2c2.2,0.4,3.3,1.1,3,3.6c-0.3,2.8-0.2,5.6,0,8.4
	c0.1,1.9-0.7,2.1-2.2,1.8c-8.7-2.1-17.5-2.6-26.4-2.4c-6.6,0.1-13,1.3-19.5,2.2C86.6,541.8,78.9,543,71.1,544.2L71.1,544.2z
	 M95.8,507.2c0.8,0.6,1.8,1.5,3.2,2.4c1.2,0.8,2.3,1.5,3.7,2c0.6,0.2,2.4,0.8,4.6,0.7c4-0.2,6.4-2.7,9.5-5.8
	c0.8-0.8,1.5-1.6,1.5-2.8c0-0.8-0.5-1.6-1.5-2.7c-3.6-4.1-9.9-4.2-14.2-0.2c-0.5,0.4-1.1,0.4-1.6,0.9c-2,2.1,0,6.2-1,6.8
	c-0.4,0.3-1.6-0.2-4.7-3.9c-0.3,0.3-0.5,0.7-0.8,1C95.1,506.1,95.5,506.7,95.8,507.2z"/>
<path d="M15.7,508.7c0,6.6,0.1,13.3-0.1,19.9c-0.1,2.3,1,2.8,2.8,3c7,0.9,14,1.4,21.1,1.5c1.7,0,2.3,0.4,2.2,2.2
	c-0.2,3.1-0.1,6.3,0,9.4c0.1,1.6-0.5,1.9-2,1.9c-7.1,0-14.1-0.7-21.1-1.6c-7.8-1-15.5-2.6-23-4.8c-1.4-0.4-1.8-1-1.8-2.4
	c0-16.5,0-33,0-49.4c0-1.6,0.4-2.1,2.1-2.1c5.9,0.1,11.8,0.1,17.7,0c1.9,0,2.2,0.6,2.1,2.3C15.6,495.3,15.7,502,15.7,508.7
	L15.7,508.7z"/>
<path d="M45,516.3c0-9.3,0-18.5,0-27.8c0-1.7,0.4-2.3,2.2-2.2c5.9,0.1,11.8,0.1,17.7,0c1.7,0,2.1,0.6,2.1,2.1
	c0,18.2-0.1,36.4,0,54.6c0,1.5-0.5,2-1.9,2.2c-6.2,0.6-12.4,1.4-18.6,1.4c-1.9,0-1.4-1.2-1.4-2.2C45,535,45,525.7,45,516.3L45,516.3
	z"/>
<path d="M-19.1,540.1c4.4,1.5,8.7,3,13.1,4.3c9,2.6,18.1,4.5,27.4,5.6c7.3,0.9,14.7,1.4,22.1,1.3c12,0,23.9-1.6,35.8-3.6
	c10.3-1.8,20.6-3.3,31-4.3c14-1.3,27.6,0.5,40.8,5.1c0.5,0.2,0.9,0.4,1.3,0.8c-4.8-0.8-9.5-1.5-14.3-2c-6.7-0.6-13.4-0.2-20.1,0.4
	c-13.9,1.2-27.2,5.2-40.8,8.1c-12.9,2.8-26,4.5-39.3,3.6c-10.7-0.8-21.1-2.8-31.3-6.2c-8.7-2.9-17.1-6.7-24.7-11.9
	C-18.5,540.9-19,540.8-19.1,540.1L-19.1,540.1z"/>
<path d="M153,542.1c-1.1,0-2.2-0.1-3.2,0c-2.2,0.3-3-0.5-2.9-2.8c0.1-2,0.7-2.6,2.6-2.4c1.1,0.1,2.2,0.1,3.2,0
	c0.8,0,2.1,0.4,2.1-0.6c0-1.2-1.3-0.6-2-0.6c-1.5-0.1-3,0-4.5,0c-0.7,0-1.3,0-1.4-1s0.6-1,1.3-1c3.1,0,6.1,0,9.2,0
	c1.6,0,1.5,1,1.4,2c-0.2,1.1,1,2.9-1.3,3.1c-1.8,0.1-3.6,0-5.5,0c-0.6,0-1.3,0-1.3,0.8c0,0.8,0.8,0.6,1.4,0.6c1.6,0,3.2-0.1,4.7,0
	c0.8,0,2-0.6,2.1,0.9c0.1,1.6-1.2,1-2,1C155.6,542.1,154.3,542.1,153,542.1L153,542.1z"/>
<path d="M153.1,528.3c-1.1,0-2.2-0.1-3.2,0c-2.4,0.4-3.1-0.6-3-3c0.1-1.6,0.4-2.4,2.2-2.2c1.6,0.1,3.1,0,4.7,0
	c0.5,0,1.1,0.1,1.1-0.6c0-0.7-0.6-0.7-1.1-0.7c-1.7,0-3.5,0-5.2,0c-0.7,0-1.6,0.2-1.6-1c0-1.2,0.9-1,1.6-1c2.8,0,5.6,0.1,8.5,0
	c2.5-0.1,1.6,1.8,1.7,3c0.1,1.2,0.3,2.5-1.8,2.4c-1.6-0.2-3.3,0-5,0c-0.5,0-1.1,0-1.1,0.7c0,0.6,0.5,0.8,1.1,0.8c1.8,0,3.6,0,5.5,0
	c0.6,0,1.5-0.3,1.5,0.8c0.1,1.2-0.9,0.9-1.6,0.9C155.9,528.3,154.5,528.3,153.1,528.3L153.1,528.3L153.1,528.3z"/>
<path d="M165.1,541.6c1-1.4,1.9-2.5,2.7-3.7c0.7-0.9,1.3-1.8-0.6-1.8c-0.9,0-1.4-0.2-1.4-1.2c0.1-0.9,0.6-1.1,1.3-1.1
	c0.9,0,1.6-0.2,2.4-0.9c0.6-0.6,2.1-0.7,2.7,0.1c0.6,0.7,1.2,0.7,1.9,0.8c0.8,0.1,1.7-0.1,1.7,1.2c0,1.4-0.9,1-1.7,1.1
	c-0.4,0-0.8,0.1-1.4,0.2c0.7,2.1,2.6,3.3,3.5,5.2c-1.9,0.7-3.3,0.3-4.3-1.4c-0.8-1.4-1.6-1.5-2.4,0
	C168.7,541.7,167.3,542.4,165.1,541.6L165.1,541.6z"/>
<path d="M193.3,542.1c-3.1,0-5.4-1.9-5.4-4.5c0-2.6,2.6-4.9,5.5-4.8c2.9,0.1,5.4,2.2,5.5,4.7C198.9,540.1,196.5,542.1,193.3,542.1
	L193.3,542.1z M193.6,539.6c1.2,0,2.2-0.6,2.3-2.1c0-1.7-1.2-2.3-2.7-2.3c-1.4,0-2.4,0.7-2.3,2.3
	C190.9,539.2,191.9,539.6,193.6,539.6L193.6,539.6z"/>
<path d="M179.1,549.2c1.4,2.1,2.6,3.8,3.9,5.7c-2,0.7-3.3,0.4-4.2-1.3c-0.9-1.7-1.9-2.1-2.7,0c-0.8,1.8-2,1.9-3.9,1.3
	c0.9-1.5,1.7-2.9,2.6-4.2c0.7-1.1,0.6-1.7-0.8-1.6c-1,0.1-1.8,0-1.7-1.4c0.1-1.4,1.1-1,1.8-1c2.2,0,4.3,0,6.5,0
	c0.9,0,1.9-0.3,1.9,1.2c0.1,1.5-1,1.2-1.8,1.2C180.4,549,180,549.1,179.1,549.2L179.1,549.2z"/>
<path d="M215.7,536.7c-2.2,1.5-1.6,6-6.1,4.6c1.3-2.5,2.6-5,4-7.4c0.8-1.3,3.4-1.1,4.1,0.2c1,1.8,2,3.6,2.9,5.5
	c0.2,0.5,1.3,1.4,0.2,1.8c-0.8,0.3-2.1,0.7-2.8-0.7C217.3,539.4,216.9,537.8,215.7,536.7L215.7,536.7z"/>
<path d="M179.4,538.8c0-1.4,0-2.8,0-4.2c0-1-0.1-2,1.5-1.9c1.2,0,1.9,0.4,1.8,1.7c-0.1,1.2,0.4,1.9,1.7,1.7c0.7-0.1,1.1,0.2,1,1
	c0,0.6-0.1,1.3-0.9,1.2c-2.1-0.2-1.9,1.2-1.9,2.6c0,0.9-0.1,1.8,0,2.7c0.1,1.3-0.6,1.4-1.7,1.5c-1.2,0-1.6-0.4-1.6-1.6
	C179.4,542,179.4,540.4,179.4,538.8L179.4,538.8z"/>
<path d="M202.2,538.9c0-1.5,0-3,0-4.4c0-1,0.1-1.7,1.4-1.7c1.3,0,1.8,0.4,1.7,1.7c-0.2,1.3,0.5,1.8,1.7,1.7c0.7-0.1,1.3,0,1.3,1
	c0,0.7-0.1,1.4-1,1.3c-2-0.3-2.1,1-2,2.4c0.1,0.8,0,1.6,0,2.5c0.1,1.1-0.1,1.9-1.5,1.8c-1.4,0-1.7-0.5-1.6-1.8
	C202.3,541.9,202.2,540.4,202.2,538.9L202.2,538.9L202.2,538.9z"/>
<path d="M227.4,539.2c0,1.5-0.1,3,0,4.5c0.1,1.2-0.4,1.6-1.6,1.6c-1.1,0-1.7-0.3-1.6-1.5c0.1-0.8,0-1.6,0-2.5c0.1-1.6,0.1-3-2.2-2.6
	c-0.9,0.2-1.3-0.3-1.3-1.3c0-1,0.5-1.3,1.4-1.2c1.5,0.2,2.4-0.2,2.2-2c-0.2-1.4,1-1,1.7-1.1c0.9-0.1,1.4,0.1,1.4,1.2
	C227.4,535.9,227.4,537.5,227.4,539.2C227.4,539.2,227.4,539.2,227.4,539.2L227.4,539.2z"/>
<path d="M153.1,530.1c1.9,0,3.8,0,5.7,0c0.8,0,1.3,0.1,1.3,1.1c0,0.9-0.5,1.1-1.3,1.1c-3.9,0-7.8,0-11.6,0c-0.7,0-1.2-0.2-1.2-1.1
	c0-1,0.5-1.1,1.3-1.1C149.2,530.1,151.2,530.1,153.1,530.1L153.1,530.1z"/>
<g>
	<path class="st0" d="M941.8,88h-286V0h286V88z M763.7,9.3v35h22.5c0.2,5.5,0.2,5.4-4.4,6.1c-6.5,1-13,2.1-19.5,3.1v13.3
		c23.6-3.5,46.8-8.8,70.6-2.9V50.2c-7-0.8-13.9-1.5-20.7-2.5c-1.3-0.2-2.6-1.3-3.8-2c1.3-0.5,2.7-1.5,4.1-1.6
		c6.2-0.2,12.5-0.1,18.7-0.1V9.3H763.7z M732.1,69.2v-13c-8.7-0.8-17-1.5-25.6-2.2V9.5h-21.8c0,17,0,33.6,0.1,50.3
		c0,1.1,1.5,3,2.7,3.3C701.9,67,716.7,69.2,732.1,69.2L732.1,69.2z M757.5,9.1c-5.9,0-11.5,0.2-17.1-0.1c-3.9-0.2-4.7,1.3-4.7,4.9
		c0.2,17,0.1,33.9,0.1,50.9c0,1.4,0.2,2.8,0.4,4.6c6.4-0.4,12.3-0.7,18.2-1.4c1.1-0.1,2.9-2.2,2.9-3.4
		C757.6,46.5,757.5,28.4,757.5,9.1L757.5,9.1z M673.3,63.9c0.8,0.6,1.5,1.2,2.4,1.7c2,1.2,4,2.4,6,3.4c27,13.4,55.2,15.9,84.7,9.7
		c16-3.4,32.1-6.4,48.3-8.7c8-1.1,16.3-0.2,24.6-0.2c-6.9-1.2-13.8-2.8-20.8-3.6c-16.4-1.9-32.5,1.3-48.4,4.3
		C737.2,76.7,705.2,74.9,673.3,63.9L673.3,63.9z M883.6,66.9c2.7-3.2,5.6-5.1,5.3-6.6c-0.3-1.8-3.1-4.2-5-4.5
		c-1.5-0.2-4.7,2.4-4.8,4C878.8,61.5,881.3,63.5,883.6,66.9L883.6,66.9z M841.9,49.1c0-0.4,0.1-0.8,0.1-1.2c2.2-0.2,4.4-0.3,7.1-0.5
		c-0.1-1.6-0.2-3.1-0.2-4.2h-10.8c0,0.3,0,0.6,0,1c2.3,0.2,4.6,0.4,6.9,0.6c0,0.3,0,0.5,0,0.8c-2.3,0.3-4.6,0.6-6.9,0.8
		c-0.3,5,4.5,6.4,11.5,3.3C846.6,49.4,844.3,49.3,841.9,49.1L841.9,49.1z M845.2,58.6c-2.3,2.2-9.1-1.7-7,5.6h10.8
		c0-0.2,0-0.5,0.1-0.8c-2.4-0.4-4.9-0.7-7.3-1.1c0.1-0.3,0.1-0.6,0.2-1c2.3-0.1,4.5-0.2,7-0.3v-4.2h-10.9c0,0.3,0,0.6,0,1
		C840.4,58.1,842.7,58.4,845.2,58.6z M866,64.6c0.2-0.3,0.4-0.7,0.5-1c-0.9-1.3-1.8-2.6-2.5-3.8c0.9-1,1.6-1.7,3-3.3h-10.3
		c0,0.4-0.1,0.8-0.1,1.2c0.8,0.6,1.7,1.3,2.5,1.9c-0.9,1.5-1.8,2.9-2.6,4.2c0.2,0.2,0.4,0.5,0.6,0.8c1.5-0.9,3.1-1.8,4.5-2.7
		C862.9,62.8,864.5,63.7,866,64.6L866,64.6z M863.3,77.1c0.3,0.3,0.6,0.7,0.9,1c1.4-1.1,2.7-2.1,3.7-2.9c1.7,1,3.2,1.9,4.6,2.8
		c0.2-0.3,0.4-0.6,0.7-0.9c-1-1.5-1.9-3-2.9-4.4c1.3-0.6,2.5-1.1,3.7-1.6c-0.5-0.5-0.9-0.9-1.4-1.4h-10.5c1.8,1.4,2.8,2.2,3.7,2.9
		C864.9,74.3,864.1,75.7,863.3,77.1L863.3,77.1z M910.5,64.7c0.7-0.6,1.3-1.2,2-1.9l-6.7-6.7c-1.8,2.4-3.7,4.8-5.5,7.2
		c0.5,0.4,1,0.9,1.5,1.3c1.5-1.6,3.1-3.2,4.5-4.7C907.8,61.5,909.1,63.1,910.5,64.7L910.5,64.7z M912.4,59.5c1.5,3.2,2.8,5.9,4,8.6
		c0.4-0.2,0.8-0.3,1.2-0.4V54.9C915.2,57.1,913.5,58.6,912.4,59.5L912.4,59.5z M872.5,53.7l-2.1,2v11.6l1.2,0.5
		c1.2-2.7,2.5-5.3,3.7-8c-0.3,0.5-0.7,1.1-1,1.7C873.6,58.9,873,56.3,872.5,53.7L872.5,53.7z M897.9,60.2c-1.1,1.2-2.2,2.4-3.2,3.6
		c0.2-3.2,0.3-6.5,0.5-9.7c-0.8,0.5-1.5,1.1-2.3,1.6c0,2.9-0.1,5.8,0.1,8.7c0.1,1.1,0.9,2.1,1.3,3.2c0.5-1,1.2-1.9,1.7-2.9
		C896.7,63.2,897.3,61.7,897.9,60.2L897.9,60.2z M850.4,54.5c0-0.4,0-0.7,0-1.1h-13c0,0.4,0,0.7,0,1.1H850.4z"/>
	<path d="M763.7,9.3h67.4v34.8c-6.2,0-12.5-0.1-18.7,0.1c-1.4,0-2.7,1-4.1,1.6c1.3,0.7,2.5,1.8,3.8,2c6.8,0.9,13.7,1.6,20.7,2.5
		v13.7c-23.8-5.9-46.9-0.6-70.6,2.9V53.5c6.5-1,12.9-2.2,19.5-3.1c4.6-0.7,4.6-0.6,4.4-6.1h-22.5V9.3z M786.6,31.6
		c3.2-2.6,5.9-3.4,9.4-0.6c1.7,1.4,5.5,1.3,7.9,0.5c2.1-0.7,3.5-3.4,5.3-5.2c-1.9-1.7-3.7-4.7-5.7-4.9c-3.9-0.2-8,1.1-12,1.8
		c0.1,0.4,0.1,0.9,0.2,1.3c-1.7-0.9-3.3-1.8-5.1-2.7L786.6,31.6L786.6,31.6z"/>
	<path d="M732.1,69.2c-15.4-0.1-30.1-2.2-44.6-6.2c-1.2-0.3-2.7-2.1-2.7-3.3c-0.2-16.6-0.1-33.3-0.1-50.3h21.8V54
		c8.6,0.7,16.9,1.5,25.6,2.2L732.1,69.2L732.1,69.2z"/>
	<path d="M757.5,9.1c0,19.2,0.1,37.4-0.1,55.5c0,1.2-1.8,3.3-2.9,3.4c-5.9,0.7-11.8,1-18.2,1.4c-0.2-1.8-0.4-3.2-0.4-4.6
		c0-17,0.1-33.9-0.1-50.9c0-3.5,0.8-5.1,4.7-4.9C746,9.4,751.6,9.1,757.5,9.1L757.5,9.1z"/>
	<path d="M673.2,63.9c31.9,10.9,64,12.7,96.8,6.6c15.9-3,32-6.2,48.4-4.3c7,0.8,13.9,2.4,20.8,3.6c-8.3,0-16.6-0.9-24.6,0.2
		c-16.2,2.3-32.3,5.2-48.3,8.7c-29.4,6.3-57.6,3.8-84.7-9.7c-2.1-1-4-2.2-6-3.4C674.8,65.2,674,64.5,673.2,63.9L673.2,63.9z"/>
	<path d="M883.5,66.9c-2.3-3.3-4.7-5.3-4.5-7c0.2-1.6,3.3-4.2,4.8-4c1.9,0.2,4.7,2.6,5,4.5C889.1,61.7,886.2,63.7,883.5,66.9
		L883.5,66.9z"/>
	<path d="M841.9,49.1c2.3,0.2,4.7,0.3,7.8,0.6c-7.1,3.1-11.8,1.7-11.5-3.3c2.2-0.3,4.6-0.6,6.9-0.8c0-0.3,0-0.5,0-0.8
		c-2.3-0.2-4.6-0.4-6.9-0.6c0-0.3,0-0.6,0-1h10.8c0,1.1,0.1,2.6,0.2,4.2c-2.7,0.2-4.9,0.4-7.1,0.5C842,48.3,841.9,48.7,841.9,49.1
		L841.9,49.1z"/>
	<path d="M845.2,58.6c-2.6-0.3-4.9-0.5-7.2-0.8c0-0.3,0-0.6,0-1H849v4.2c-2.4,0.1-4.7,0.2-7,0.3c-0.1,0.3-0.1,0.6-0.2,1
		c2.4,0.4,4.9,0.7,7.3,1.1c0,0.2,0,0.5-0.1,0.8h-10.8C836.1,57,842.9,60.9,845.2,58.6z"/>
	<path d="M866,64.6c-1.5-0.9-3.1-1.8-4.5-2.7c-1.5,0.9-3,1.8-4.5,2.7c-0.2-0.2-0.4-0.5-0.6-0.8c0.8-1.3,1.7-2.7,2.6-4.2
		c-0.8-0.6-1.7-1.3-2.5-1.9c0-0.4,0.1-0.8,0.1-1.2h10.3c-1.4,1.6-2.1,2.3-3,3.3c0.8,1.2,1.7,2.5,2.5,3.8
		C866.3,63.9,866.1,64.3,866,64.6L866,64.6z"/>
	<path d="M863.3,77.1c0.8-1.4,1.5-2.8,2.5-4.6c-0.9-0.7-1.8-1.4-3.7-2.9h10.5c0.5,0.5,0.9,0.9,1.4,1.4c-1.2,0.5-2.4,1.1-3.7,1.6
		c0.9,1.4,1.9,2.9,2.9,4.4c-0.2,0.3-0.4,0.6-0.7,0.9c-1.4-0.9-2.8-1.7-4.6-2.8c-1,0.8-2.4,1.9-3.7,2.9
		C864,77.8,863.7,77.4,863.3,77.1L863.3,77.1z"/>
	<path d="M910.5,64.7c-1.4-1.6-2.7-3.2-4.1-4.8c-1.4,1.5-3,3.1-4.5,4.7c-0.5-0.4-1-0.9-1.5-1.3c1.8-2.4,3.7-4.8,5.5-7.2l6.7,6.7
		C911.9,63.5,911.2,64.1,910.5,64.7L910.5,64.7z"/>
	<path d="M912.4,59.5c1.1-0.9,2.8-2.5,5.2-4.6v12.7c-0.4,0.2-0.8,0.3-1.2,0.4C915.1,65.4,913.9,62.7,912.4,59.5L912.4,59.5z"/>
	<path d="M872.5,53.7c0.6,2.6,1.1,5.2,1.7,7.7c0.3-0.5,0.7-1.1,1-1.7c-1.2,2.7-2.5,5.3-3.7,8l-1.2-0.5V55.7L872.5,53.7L872.5,53.7z"
		/>
	<path d="M897.9,60.2c-0.7,1.5-1.3,3-2,4.4c-0.5,1-1.1,1.9-1.7,2.9c-0.5-1.1-1.2-2.1-1.3-3.2c-0.2-2.9-0.1-5.8-0.1-8.7
		c0.8-0.5,1.5-1.1,2.3-1.6c-0.2,3.2-0.3,6.5-0.5,9.7C895.7,62.6,896.8,61.4,897.9,60.2L897.9,60.2z"/>
	<path d="M850.4,54.5h-13c0-0.4,0-0.7,0-1.1h13C850.4,53.8,850.4,54.2,850.4,54.5z"/>
	<path class="st0" d="M786.6,31.6v-9.8c1.8,1,3.5,1.9,5.1,2.7c-0.1-0.4-0.1-0.9-0.2-1.3c4-0.7,8-2,12-1.8c2,0.1,3.8,3.1,5.7,4.9
		c-1.7,1.8-3.2,4.5-5.3,5.2c-2.4,0.8-6.2,0.9-7.9-0.5C792.5,28.1,789.8,28.9,786.6,31.6L786.6,31.6z"/>
</g>
<path class="st1" d="M61.3,662.4c0-9.3,0-18.5,0-27.8c0-1.7,0.4-2.3,2.2-2.2c5.9,0.1,11.8,0.1,17.7,0c1.7,0,2.1,0.6,2.1,2.1
	c0,18.2,0,36.4,0,54.7c0,1.5-0.5,2-1.9,2.2c-6.2,0.6-12.4,1.4-18.6,1.4c-1.9,0-1.4-1.2-1.4-2.2C61.3,681.1,61.3,671.7,61.3,662.4z"
	/>
<path class="st1" d="M-2.9,686.2c4.4,1.5,8.7,3,13.1,4.3c9,2.6,18.1,4.5,27.4,5.6c7.4,0.9,14.7,1.4,22.1,1.3c12,0,23.9-1.6,35.8-3.6
	c10.3-1.8,20.6-3.3,31-4.3c14-1.3,27.6,0.5,40.8,5.1c0.5,0.2,0.9,0.4,1.3,0.8c-4.8-0.8-9.5-1.5-14.3-2c-6.7-0.6-13.4-0.2-20.1,0.4
	c-13.9,1.2-27.3,5.1-40.8,8.1c-12.9,2.8-26,4.5-39.3,3.6c-10.7-0.8-21.1-2.8-31.3-6.3c-8.7-2.9-17.1-6.7-24.7-11.9
	C-2.3,687-2.8,686.8-2.9,686.2z"/>
<path class="st1" d="M169.2,688.1c-1.1,0-2.2-0.1-3.2,0c-2.2,0.3-3-0.5-2.9-2.8c0-2,0.7-2.6,2.6-2.4c1.1,0.1,2.2,0.1,3.2,0
	c0.8-0.1,2.1,0.4,2.1-0.6c0-1.2-1.3-0.6-2-0.6c-1.5-0.1-3,0-4.5,0c-0.7,0-1.3,0-1.4-1c0-1,0.6-1,1.3-1c3.1,0,6.1,0.1,9.2,0
	c1.6,0,1.5,1.1,1.4,2c-0.2,1.1,1,2.9-1.3,3.1c-1.8,0.1-3.7,0-5.5,0c-0.6,0-1.3,0-1.3,0.8c0,0.8,0.8,0.6,1.4,0.6c1.6,0,3.2-0.1,4.7,0
	c0.8,0,2-0.6,2.1,0.9c0.1,1.6-1.2,0.9-2,1C171.9,688.2,170.5,688.1,169.2,688.1z"/>
<path class="st1" d="M169.3,674.3c-1.1,0-2.2-0.1-3.2,0c-2.4,0.4-3.1-0.6-3-3c0.1-1.6,0.4-2.4,2.2-2.2c1.6,0.2,3.2,0,4.7,0
	c0.5,0,1.1,0.1,1.1-0.6c0-0.7-0.6-0.7-1.1-0.7c-1.7,0-3.5,0-5.2,0c-0.7,0-1.6,0.3-1.6-1c0-1.2,0.9-1,1.6-1c2.8,0,5.6,0.1,8.5,0
	c2.5-0.1,1.6,1.8,1.7,3c0.1,1.2,0.3,2.6-1.8,2.4c-1.6-0.2-3.3,0-5,0c-0.5,0-1.1,0-1.1,0.7c0,0.6,0.5,0.8,1.1,0.8c1.8,0,3.7,0,5.5,0
	c0.6,0,1.5-0.3,1.5,0.8c0.1,1.2-0.9,0.9-1.6,0.9C172.1,674.3,170.7,674.3,169.3,674.3C169.3,674.3,169.3,674.3,169.3,674.3z"/>
<path class="st1" d="M181.3,687.7c1-1.4,1.9-2.6,2.7-3.7c0.7-0.9,1.3-1.8-0.6-1.8c-0.9,0-1.4-0.2-1.4-1.2c0.1-0.9,0.6-1.1,1.3-1.1
	c0.9,0,1.6-0.2,2.4-0.9c0.6-0.6,2.1-0.7,2.7,0.1c0.6,0.7,1.2,0.7,1.9,0.8c0.8,0.1,1.7-0.1,1.7,1.2c0,1.4-0.9,1-1.7,1.1
	c-0.4,0-0.8,0.1-1.4,0.1c0.7,2.1,2.6,3.3,3.5,5.2c-1.9,0.7-3.3,0.3-4.3-1.4c-0.8-1.4-1.6-1.5-2.5,0
	C184.9,687.7,183.6,688.4,181.3,687.7z"/>
<path class="st1" d="M209.5,688.1c-3.1,0-5.4-1.9-5.4-4.5c0-2.6,2.6-4.9,5.5-4.8c2.9,0.1,5.4,2.2,5.5,4.7
	C215.1,686.1,212.7,688.1,209.5,688.1z M209.8,685.6c1.2,0,2.2-0.6,2.3-2.1c0-1.6-1.2-2.3-2.7-2.3c-1.3,0-2.4,0.7-2.3,2.3
	C207.1,685.2,208.1,685.6,209.8,685.6z"/>
<path class="st1" d="M195.3,695.2c1.5,2.1,2.7,3.8,3.9,5.7c-2,0.7-3.3,0.4-4.2-1.3c-0.9-1.7-1.9-2.1-2.7,0c-0.8,1.8-2,1.9-3.9,1.3
	c0.9-1.5,1.7-2.9,2.6-4.2c0.7-1.1,0.6-1.7-0.8-1.6c-1,0.1-1.8,0-1.7-1.4c0.1-1.4,1.1-1,1.8-1c2.2,0,4.3,0,6.5,0
	c0.9,0,1.9-0.3,1.9,1.2c0.1,1.6-1,1.2-1.8,1.2C196.6,695.1,196.2,695.1,195.3,695.2z"/>
<path class="st1" d="M232,682.8c-2.2,1.5-1.6,6-6.1,4.6c1.3-2.5,2.6-5,4-7.4c0.7-1.3,3.4-1.1,4.2,0.2c1,1.8,2,3.6,2.9,5.5
	c0.3,0.5,1.3,1.4,0.2,1.8c-0.8,0.3-2.1,0.7-2.8-0.7C233.5,685.4,233.1,683.9,232,682.8z"/>
<path class="st1" d="M195.6,684.8c0-1.4,0-2.8,0-4.2c0-1-0.1-2,1.5-1.9c1.2,0,1.9,0.4,1.8,1.7c-0.1,1.2,0.4,1.9,1.7,1.7
	c0.7-0.1,1.1,0.2,1,1c0,0.6,0,1.3-0.8,1.2c-2.1-0.2-1.9,1.2-1.9,2.6c0,0.9-0.1,1.8,0,2.7c0.1,1.3-0.6,1.4-1.7,1.5
	c-1.2,0-1.6-0.4-1.5-1.6C195.7,688,195.6,686.4,195.6,684.8z"/>
<path class="st1" d="M218.5,684.9c0-1.5,0-3,0-4.4c0-1,0.1-1.7,1.4-1.7c1.3,0,1.8,0.4,1.7,1.7c-0.2,1.3,0.5,1.8,1.7,1.7
	c0.7-0.1,1.3,0,1.3,1c0,0.7-0.1,1.4-1,1.3c-2-0.3-2.1,1-2,2.4c0.1,0.8,0,1.6,0,2.5c0.1,1.1-0.1,1.9-1.5,1.8c-1.3,0-1.7-0.5-1.6-1.8
	C218.5,687.9,218.4,686.4,218.5,684.9C218.5,684.9,218.5,684.9,218.5,684.9z"/>
<path class="st1" d="M243.7,685.2c0,1.5,0,3,0,4.4c0,1.2-0.4,1.6-1.6,1.6c-1.2,0-1.7-0.3-1.6-1.5c0.1-0.8,0-1.7,0-2.5
	c0.1-1.6,0.1-3-2.2-2.6c-0.9,0.2-1.3-0.3-1.3-1.3c0-1,0.5-1.3,1.4-1.2c1.5,0.2,2.4-0.2,2.2-2c-0.2-1.4,1-1,1.7-1.1
	c0.9-0.1,1.4,0.1,1.4,1.2C243.6,681.9,243.7,683.5,243.7,685.2C243.7,685.2,243.7,685.2,243.7,685.2z"/>
<path class="st1" d="M169.4,676.1c1.9,0,3.8,0,5.7,0c0.8,0,1.3,0.2,1.3,1.1c0,0.9-0.5,1.1-1.3,1.1c-3.9,0-7.8,0-11.7,0
	c-0.7,0-1.2-0.2-1.3-1.1c0-1,0.5-1.1,1.3-1.1C165.4,676.1,167.4,676.1,169.4,676.1z"/>
<g id="_2744712221440">
	<polygon class="st2" points="-18.8,727 110.8,727 110.8,853.3 -18.8,853.3 	"/>
	<path class="st3" d="M74.8,790.1c0-7.7-3.2-14.7-8.4-19.8c-5.2-5.1-12.4-8.2-20.3-8.2s-15.1,3.1-20.3,8.2
		c-5.2,5.1-8.4,12.1-8.4,19.8c0,7.7,3.2,14.7,8.4,19.8c5.2,5.1,12.4,8.2,20.3,8.2s15.1-3.1,20.3-8.2
		C71.6,804.9,74.8,797.8,74.8,790.1z M28.4,799.3c2.4-1.6,5-2.9,7.8-3.8c3.1-1,6.5-1.5,9.8-1.5c3.4,0,6.7,0.5,9.9,1.6
		c2.7,0.9,5.3,2.1,7.7,3.7c1.2-2.3,2-4.9,2.2-7.6H46H26.3C26.4,794.5,27.2,797,28.4,799.3z M65.2,801.6c0,0.1-0.1,0.1-0.1,0.2
		c-0.9,1.5-2,2.8-3.3,4c-4,3.9-9.6,6.4-15.8,6.4s-11.7-2.4-15.8-6.4c-4-3.9-6.5-9.4-6.5-15.4c0-0.7,0.6-1.2,1.2-1.2h21h21
		c0.7,0,1.2,0.5,1.2,1.2C68.3,794.6,67.2,798.4,65.2,801.6z M62.4,801.4c-2.2-1.5-4.7-2.7-7.2-3.5c-2.9-0.9-6-1.4-9.1-1.4
		c-3.1,0-6.1,0.5-9,1.4c-2.6,0.8-5.1,2-7.3,3.5c0.7,1,1.5,1.9,2.3,2.7c3.6,3.5,8.5,5.6,14,5.6s10.4-2.2,14-5.6
		C60.9,803.3,61.7,802.4,62.4,801.4z M65.4,782.6c0.6,0.3,0.9,1,0.7,1.6c-0.3,0.6-1,0.9-1.6,0.6l-9.1-3.8c-0.3-0.1-0.6-0.3-0.7-0.7
		c-0.3-0.6,0-1.3,0.7-1.6l9.2-3.9c0.6-0.3,1.4,0,1.6,0.6c0.3,0.6,0,1.3-0.7,1.6l-6.5,2.7L65.4,782.6z M27.6,784.9
		c-0.6,0.3-1.4,0-1.6-0.6c-0.3-0.6,0-1.3,0.7-1.6l6.5-2.7l-6.5-2.7c-0.6-0.3-0.9-1-0.7-1.6c0.3-0.6,1-0.9,1.6-0.6l9.2,3.9
		c0.6,0.3,0.9,1,0.7,1.6c-0.1,0.3-0.4,0.6-0.7,0.7L27.6,784.9z M68.1,768.6c5.7,5.5,9.2,13.1,9.2,21.5s-3.5,16-9.2,21.5
		c-5.7,5.5-13.5,8.9-22.1,8.9s-16.4-3.4-22.1-8.9c-5.7-5.5-9.2-13.1-9.2-21.5s3.5-16,9.2-21.5s13.5-8.9,22.1-8.9
		S62.5,763.1,68.1,768.6z"/>
</g>
<g>
	<path class="st1" d="M154.8,673.1c-6.5-1.2-13-1.8-19.5-2.2c-1.2-0.1-2.5,0.1-2.4-1.9c0.1-2,1.3-1.8,2.5-1.8c6.2,0,12.5-0.1,18.7,0
		c1.7,0,2.3-0.3,2.3-2.1c-0.1-10.3-0.1-20.5,0-30.8c0-1.9-0.7-2.1-2.3-2.1c-21.3,0-42.6,0.1-63.8,0c-1.9,0-2.4,0.5-2.3,2.3
		c0.1,10.1,0.1,20.2,0,30.3c0,2.1,0.7,2.4,2.6,2.4c6.2-0.1,12.3,0,18.5,0c0.8,0,1.8-0.3,2.2,1c0.7,3.1-0.1,4.5-3.1,5.1
		c-0.5,0.1-1,0.1-1.5,0.2c-6.1,0.9-12.3,1.9-18.4,2.9c-0.8,0.1-1.7,0-1.7,1.3c0.1,4.1,0,8.3,0,12.4c7.9-1.2,15.5-2.4,23.2-3.5
		c6.5-0.9,12.9-2.1,19.5-2.2c8.9-0.2,17.7,0.3,26.4,2.4c1.5,0.4,2.3,0.1,2.2-1.8c-0.2-2.8-0.3-5.7,0-8.4
		C158.1,674.3,156.9,673.6,154.8,673.1z M129.8,655.9c-1.7,1.7-4,2.7-6.6,2.7s-4.9-1-6.6-2.7c-1.7-1.7-2.7-3.9-2.7-6.5
		c0-2.5,1.1-4.8,2.7-6.5c1.7-1.7,4-2.7,6.6-2.7s4.9,1,6.6,2.7c1.7,1.7,2.7,3.9,2.7,6.5C132.6,651.9,131.5,654.2,129.8,655.9z"/>
	<path class="st1" d="M126,646l2.8-1.2c0.2-0.1,0.4,0,0.5,0.2s0,0.4-0.2,0.5l-2,0.8l2,0.8c0.2,0.1,0.3,0.3,0.2,0.5
		c-0.1,0.2-0.3,0.3-0.5,0.2l-2.7-1.1c-0.1,0-0.2-0.1-0.2-0.2C125.7,646.3,125.8,646.1,126,646z"/>
	<path class="st1" d="M117.2,645c0.1-0.2,0.3-0.3,0.5-0.2l2.8,1.2c0.2,0.1,0.3,0.3,0.2,0.5c0,0.1-0.1,0.2-0.2,0.2l-2.7,1.1
		c-0.2,0.1-0.4,0-0.5-0.2c-0.1-0.2,0-0.4,0.2-0.5l2-0.8l-2-0.8C117.2,645.4,117.1,645.2,117.2,645z"/>
	<path class="st1" d="M129.9,649.5c0,1.2-0.3,2.4-0.9,3.3c0,0,0,0,0,0.1c-0.3,0.4-0.6,0.8-1,1.2c-1.2,1.2-2.9,1.9-4.7,1.9
		s-3.5-0.7-4.7-1.9c-1.2-1.2-2-2.8-2-4.6c0-0.2,0.2-0.4,0.4-0.4h6.3h6.3C129.7,649.2,129.9,649.3,129.9,649.5z"/>
	<path class="st1" d="M117.3,649.9c0.1,0.8,0.3,1.6,0.6,2.3c0.7-0.5,1.5-0.9,2.3-1.1c0.9-0.3,1.9-0.5,2.9-0.5c1,0,2,0.2,3,0.5
		c0.8,0.3,1.6,0.6,2.3,1.1c0.4-0.7,0.6-1.5,0.6-2.3h-5.9H117.3z"/>
	<path class="st1" d="M123.2,651.3c-0.9,0-1.8,0.1-2.7,0.4c-0.8,0.2-1.5,0.6-2.2,1.1c0.2,0.3,0.4,0.6,0.7,0.8c1.1,1,2.6,1.7,4.2,1.7
		s3.1-0.7,4.2-1.7c0.3-0.3,0.5-0.5,0.7-0.8c-0.7-0.5-1.4-0.8-2.2-1.1C125,651.5,124.1,651.3,123.2,651.3z"/>
</g>
<path class="st1" d="M31.2,632.3c-13.8,0-24.9,13.5-24.9,30.2s11.2,30.2,24.9,30.2c13.8,0,24.9-13.5,24.9-30.2S45,632.3,31.2,632.3z
	 M27.1,667.8c0,0.3-0.3,0.6-0.6,0.6h-1.8c-0.3,0-0.6-0.3-0.6-0.6v-5.6c0-0.3,0.3-0.6,0.6-0.6h1.8c0.3,0,0.6,0.3,0.6,0.6V667.8z
	 M37.9,665.4c0,0.4-0.7,0.8-0.8,1.1c-0.1,0.2,0,0.7-0.1,0.9c-0.2,0.4-0.8,0.9-1.2,1.1c-1.2,0.4-5.1,0-5.1,0l-3.1-0.6v-6H28
	c0.4,0,1.2-0.6,2.3-3.3c0.2-0.4,0.5-0.7,0.9-1c0.6-0.5,1.1-1.1,1.2-3.5c0-0.3,1.1-0.3,1.6,0.5c0.5,0.6,0.5,1.8,0.2,2.7
	c-0.2,0.6-1.1,2-0.8,2.6c0,0,3.3-0.1,4,0.1c0.4,0.2,1,1,1,1.5c0,0.2-0.5,0.6-0.5,0.8c0,0.3,0.5,0.8,0.5,1.1c0,0.3-0.6,0.7-0.6,1
	C37.6,664.6,37.9,665.2,37.9,665.4z"/>
<path class="st4" d="M158.7,643.8c1.7,5.4,2.2,9.8,2,19c20.3-15.6,34.7-14.9,35-16.4c0,0,0-0.1,0-0.2c-0.7-1.6-11.4,1.8-16.7,3.7
	c-3.8,1.4-9.3,3.6-15.7,7.2C161.7,652.7,160.2,648.3,158.7,643.8z"/>
<text transform="matrix(1.25 0 0 1 165.1447 645.3918)" class="st1" style="font-family:'GangwonEduPowerExtraBold-KSCpc-EUC-H'; font-size:24px;">ji</text>
<path class="st4" d="M126.6,594.9"/>
<g>
	<path class="st5" d="M329.4,597.1c0-9.3,0-18.5,0-27.8c0-1.7,0.4-2.3,2.2-2.2c5.9,0.1,11.8,0.1,17.7,0c1.7,0,2.1,0.6,2.1,2.1
		c0,18.2,0,36.4,0,54.7c0,1.5-0.5,2-1.9,2.2c-6.2,0.6-12.4,1.4-18.6,1.4c-1.9,0-1.4-1.2-1.4-2.2
		C329.4,615.8,329.4,606.5,329.4,597.1z"/>
	<path class="st5" d="M265.2,620.9c4.4,1.5,8.7,3,13.1,4.3c9,2.6,18.1,4.5,27.4,5.6c7.4,0.9,14.7,1.4,22.1,1.3
		c12,0,23.9-1.6,35.8-3.6c10.3-1.8,20.6-3.3,31-4.3c14-1.3,27.6,0.5,40.8,5.1c0.5,0.2,0.9,0.4,1.3,0.8c-4.8-0.8-9.5-1.5-14.3-2
		c-6.7-0.6-13.4-0.2-20.1,0.4c-13.9,1.2-27.3,5.1-40.8,8.1c-12.9,2.8-26,4.5-39.3,3.6c-10.7-0.8-21.1-2.8-31.3-6.3
		c-8.7-2.9-17.1-6.7-24.7-11.9C265.8,621.7,265.3,621.6,265.2,620.9z"/>
	<path class="st5" d="M437.3,622.8c-1.1,0-2.2-0.1-3.2,0c-2.2,0.3-3-0.5-2.9-2.8c0-2,0.7-2.6,2.6-2.4c1.1,0.1,2.2,0.1,3.2,0
		c0.8-0.1,2.1,0.4,2.1-0.6c0-1.2-1.3-0.6-2-0.6c-1.5-0.1-3,0-4.5,0c-0.7,0-1.3,0-1.4-1c0-1,0.6-1,1.3-1c3.1,0,6.1,0.1,9.2,0
		c1.6,0,1.5,1.1,1.4,2c-0.2,1.1,1,2.9-1.3,3.1c-1.8,0.1-3.7,0-5.5,0c-0.6,0-1.3,0-1.3,0.8c0,0.8,0.8,0.6,1.4,0.6
		c1.6,0,3.2-0.1,4.7,0c0.8,0,2-0.6,2.1,0.9c0.1,1.6-1.2,0.9-2,1C440,622.9,438.6,622.8,437.3,622.8z"/>
	<path class="st5" d="M437.4,609.1c-1.1,0-2.2-0.1-3.2,0c-2.4,0.4-3.1-0.6-3-3c0.1-1.6,0.4-2.4,2.2-2.2c1.6,0.2,3.2,0,4.7,0
		c0.5,0,1.1,0.1,1.1-0.6c0-0.7-0.6-0.7-1.1-0.7c-1.7,0-3.5,0-5.2,0c-0.7,0-1.6,0.3-1.6-1c0-1.2,0.9-1,1.6-1c2.8,0,5.6,0.1,8.5,0
		c2.5-0.1,1.6,1.8,1.7,3c0.1,1.2,0.3,2.6-1.8,2.4c-1.6-0.2-3.3,0-5,0c-0.5,0-1.1,0-1.1,0.7c0,0.6,0.5,0.8,1.1,0.8c1.8,0,3.7,0,5.5,0
		c0.6,0,1.5-0.3,1.5,0.8c0.1,1.2-0.9,0.9-1.6,0.9C440.2,609.1,438.8,609.1,437.4,609.1C437.4,609.1,437.4,609.1,437.4,609.1z"/>
	<path class="st5" d="M449.4,622.4c1-1.4,1.9-2.6,2.7-3.7c0.7-0.9,1.3-1.8-0.6-1.8c-0.9,0-1.4-0.2-1.4-1.2c0.1-0.9,0.6-1.1,1.3-1.1
		c0.9,0,1.6-0.2,2.4-0.9c0.6-0.6,2.1-0.7,2.7,0.1c0.6,0.7,1.2,0.7,1.9,0.8c0.8,0.1,1.7-0.1,1.7,1.2c0,1.4-0.9,1-1.7,1.1
		c-0.4,0-0.8,0.1-1.4,0.1c0.7,2.1,2.6,3.3,3.5,5.2c-1.9,0.7-3.3,0.3-4.3-1.4c-0.8-1.4-1.6-1.5-2.5,0
		C453,622.4,451.7,623.2,449.4,622.4z"/>
	<path class="st5" d="M477.6,622.8c-3.1,0-5.4-1.9-5.4-4.5c0-2.6,2.6-4.9,5.5-4.8c2.9,0.1,5.4,2.2,5.5,4.7
		C483.2,620.8,480.8,622.8,477.6,622.8z M477.9,620.4c1.2,0,2.2-0.6,2.3-2.1c0-1.6-1.2-2.3-2.7-2.3c-1.3,0-2.4,0.7-2.3,2.3
		C475.2,620,476.3,620.4,477.9,620.4z"/>
	<path class="st5" d="M463.4,629.9c1.5,2.1,2.7,3.8,3.9,5.7c-2,0.7-3.3,0.4-4.2-1.3c-0.9-1.7-1.9-2.1-2.7,0c-0.8,1.8-2,1.9-3.9,1.3
		c0.9-1.5,1.7-2.9,2.6-4.2c0.7-1.1,0.6-1.7-0.8-1.6c-1,0.1-1.8,0-1.7-1.4c0.1-1.4,1.1-1,1.8-1c2.2,0,4.3,0,6.5,0
		c0.9,0,1.9-0.3,1.9,1.2c0.1,1.6-1,1.2-1.8,1.2C464.7,629.8,464.3,629.9,463.4,629.9z"/>
	<path class="st5" d="M500.1,617.5c-2.2,1.5-1.6,6-6.1,4.6c1.3-2.5,2.6-5,4-7.4c0.7-1.3,3.4-1.1,4.2,0.2c1,1.8,2,3.6,2.9,5.5
		c0.3,0.5,1.3,1.4,0.2,1.8c-0.8,0.3-2.1,0.7-2.8-0.7C501.7,620.2,501.2,618.6,500.1,617.5z"/>
	<path class="st5" d="M463.7,619.6c0-1.4,0-2.8,0-4.2c0-1-0.1-2,1.5-1.9c1.2,0,1.9,0.4,1.8,1.7c-0.1,1.2,0.4,1.9,1.7,1.7
		c0.7-0.1,1.1,0.2,1,1c0,0.6,0,1.3-0.8,1.2c-2.1-0.2-1.9,1.2-1.9,2.6c0,0.9-0.1,1.8,0,2.7c0.1,1.3-0.6,1.4-1.7,1.5
		c-1.2,0-1.6-0.4-1.5-1.6C463.8,622.7,463.7,621.1,463.7,619.6z"/>
	<path class="st5" d="M486.6,619.7c0-1.5,0-3,0-4.4c0-1,0.1-1.7,1.4-1.7c1.3,0,1.8,0.4,1.7,1.7c-0.2,1.3,0.5,1.8,1.7,1.7
		c0.7-0.1,1.3,0,1.3,1c0,0.7-0.1,1.4-1,1.3c-2-0.3-2.1,1-2,2.4c0.1,0.8,0,1.6,0,2.5c0.1,1.1-0.1,1.9-1.5,1.8c-1.3,0-1.7-0.5-1.6-1.8
		C486.6,622.6,486.6,621.1,486.6,619.7C486.6,619.7,486.6,619.7,486.6,619.7z"/>
	<path class="st5" d="M511.8,619.9c0,1.5,0,3,0,4.4c0,1.2-0.4,1.6-1.6,1.6c-1.2,0-1.7-0.3-1.6-1.5c0.1-0.8,0-1.7,0-2.5
		c0.1-1.6,0.1-3-2.2-2.6c-0.9,0.2-1.3-0.3-1.3-1.3c0-1,0.5-1.3,1.4-1.2c1.5,0.2,2.4-0.2,2.2-2c-0.2-1.4,1-1,1.7-1.1
		c0.9-0.1,1.4,0.1,1.4,1.2C511.8,616.6,511.8,618.3,511.8,619.9C511.8,619.9,511.8,619.9,511.8,619.9z"/>
	<path class="st5" d="M437.5,610.9c1.9,0,3.8,0,5.7,0c0.8,0,1.3,0.2,1.3,1.1c0,0.9-0.5,1.1-1.3,1.1c-3.9,0-7.8,0-11.7,0
		c-0.7,0-1.2-0.2-1.3-1.1c0-1,0.5-1.1,1.3-1.1C433.5,610.9,435.5,610.9,437.5,610.9z"/>
	<g>
		<path class="st5" d="M422.9,607.9c-6.5-1.2-13-1.8-19.5-2.2c-1.2-0.1-2.5,0.1-2.4-1.9c0.1-2,1.3-1.8,2.5-1.8
			c6.2,0,12.5-0.1,18.7,0c1.7,0,2.3-0.3,2.3-2.1c-0.1-10.3-0.1-20.5,0-30.8c0-1.9-0.7-2.1-2.3-2.1c-21.3,0-42.6,0.1-63.8,0
			c-1.9,0-2.4,0.5-2.3,2.3c0.1,10.1,0.1,20.2,0,30.3c0,2.1,0.7,2.4,2.6,2.4c6.2-0.1,12.3,0,18.5,0c0.8,0,1.8-0.3,2.2,1
			c0.7,3.1-0.1,4.5-3.1,5.1c-0.5,0.1-1,0.1-1.5,0.2c-6.1,0.9-12.3,1.9-18.4,2.9c-0.8,0.1-1.7,0-1.7,1.3c0.1,4.1,0,8.3,0,12.4
			c7.9-1.2,15.5-2.4,23.2-3.5c6.5-0.9,12.9-2.1,19.5-2.2c8.9-0.2,17.7,0.3,26.4,2.4c1.5,0.4,2.3,0.1,2.2-1.8c-0.2-2.8-0.3-5.7,0-8.4
			C426.2,609,425.1,608.3,422.9,607.9z"/>
		<path class="st6" d="M397.9,590.6c-1.7,1.7-4,2.7-6.6,2.7s-4.9-1-6.6-2.7c-1.7-1.7-2.7-3.9-2.7-6.5c0-2.5,1.1-4.8,2.7-6.5
			c1.7-1.7,4-2.7,6.6-2.7s4.9,1,6.6,2.7c1.7,1.7,2.7,3.9,2.7,6.5C400.7,586.7,399.6,589,397.9,590.6z"/>
		<path class="st5" d="M394.1,580.7l2.8-1.2c0.2-0.1,0.4,0,0.5,0.2s0,0.4-0.2,0.5l-2,0.8l2,0.8c0.2,0.1,0.3,0.3,0.2,0.5
			c-0.1,0.2-0.3,0.3-0.5,0.2l-2.7-1.1c-0.1,0-0.2-0.1-0.2-0.2C393.8,581,393.9,580.8,394.1,580.7z"/>
		<path class="st5" d="M385.3,579.8c0.1-0.2,0.3-0.3,0.5-0.2l2.8,1.2c0.2,0.1,0.3,0.3,0.2,0.5c0,0.1-0.1,0.2-0.2,0.2l-2.7,1.1
			c-0.2,0.1-0.4,0-0.5-0.2c-0.1-0.2,0-0.4,0.2-0.5l2-0.8l-2-0.8C385.3,580.2,385.2,580,385.3,579.8z"/>
		<path class="st5" d="M398,584.3c0,1.2-0.3,2.4-0.9,3.3c0,0,0,0,0,0.1c-0.3,0.4-0.6,0.8-1,1.2c-1.2,1.2-2.9,1.9-4.7,1.9
			s-3.5-0.7-4.7-1.9c-1.2-1.2-2-2.8-2-4.6c0-0.2,0.2-0.4,0.4-0.4h6.3h6.3C397.8,583.9,398,584.1,398,584.3z"/>
		<path class="st5" d="M385.4,584.6c0.1,0.8,0.3,1.6,0.6,2.3c0.7-0.5,1.5-0.9,2.3-1.1c0.9-0.3,1.9-0.5,2.9-0.5c1,0,2,0.2,3,0.5
			c0.8,0.3,1.6,0.6,2.3,1.1c0.4-0.7,0.6-1.5,0.6-2.3h-5.9H385.4z"/>
		<path class="st5" d="M391.3,586.1c-0.9,0-1.8,0.1-2.7,0.4c-0.8,0.2-1.5,0.6-2.2,1.1c0.2,0.3,0.4,0.6,0.7,0.8
			c1.1,1,2.6,1.7,4.2,1.7s3.1-0.7,4.2-1.7c0.3-0.3,0.5-0.5,0.7-0.8c-0.7-0.5-1.4-0.8-2.2-1.1C393.2,586.2,392.2,586.1,391.3,586.1z"
			/>
	</g>
	<ellipse class="st5" cx="299.3" cy="597.2" rx="24.9" ry="30.2"/>
	<path class="st6" d="M295.2,602.5c0,0.3-0.3,0.6-0.6,0.6h-1.8c-0.3,0-0.6-0.3-0.6-0.6v-5.6c0-0.3,0.3-0.6,0.6-0.6h1.8
		c0.3,0,0.6,0.3,0.6,0.6V602.5z"/>
	<path class="st6" d="M306.1,600.2c0,0.4-0.7,0.8-0.8,1.1c-0.1,0.2,0,0.7-0.1,0.9c-0.2,0.4-0.8,0.9-1.2,1.1c-1.2,0.4-5.1,0-5.1,0
		l-3.1-0.6v-6h0.3c0.4,0,1.2-0.6,2.3-3.3c0.2-0.4,0.5-0.7,0.9-1c0.6-0.5,1.1-1.1,1.2-3.5c0-0.3,1.1-0.3,1.6,0.5
		c0.5,0.6,0.5,1.8,0.2,2.7c-0.2,0.6-1.1,2-0.8,2.6c0,0,3.3-0.1,4,0.1c0.4,0.2,1,1,1,1.5c0,0.2-0.5,0.6-0.5,0.8
		c0,0.3,0.5,0.8,0.5,1.1c0,0.3-0.6,0.7-0.6,1C305.7,599.4,306.1,599.9,306.1,600.2z"/>
	<path class="st7" d="M426.8,578.6c1.7,5.4,2.2,9.8,2,19c20.3-15.6,34.7-14.9,35-16.4c0,0,0-0.1,0-0.2c-0.7-1.6-11.4,1.8-16.7,3.7
		c-3.8,1.4-9.3,3.6-15.7,7.2C429.9,587.4,428.4,583,426.8,578.6z"/>
	
		<text transform="matrix(1.25 0 0 1 433.2568 580.128)" class="st5" style="font-family:'GangwonEduPowerExtraBold-KSCpc-EUC-H'; font-size:24px;">ji</text>
</g>
</svg>
